<svg xmlns="http://www.w3.org/2000/svg" id="Capa_1" viewBox="0 0 230 62"><defs><style>      .st0 {        fill: #fff;      }    </style></defs><path class="st0" d="M160.1,17c-2.9,0-5.8.6-8.5,1.8v-9.4c-.2-1.6-.9-3.2-2.1-4.3-1.2-1.1-2.8-1.7-4.4-1.7s-3.2.6-4.4,1.7c-1.2,1.1-2,2.6-2.1,4.3v30.2c.1,4.3,1.5,8.5,4,12,2.5,3.5,5.9,6.2,9.8,7.8,4,1.6,8.3,1.9,12.4,1,4.2-.9,7.9-3.1,10.9-6.1,3-3.1,5-7,5.7-11.2.8-4.2.3-8.6-1.3-12.6s-4.4-7.3-8-9.7-7.7-3.6-11.9-3.7ZM160.1,47.4c-1.7,0-3.3-.5-4.6-1.4-1.4-.9-2.5-2.2-3.1-3.8-.6-1.5-.8-3.2-.5-4.9.3-1.6,1.1-3.1,2.3-4.3,1.2-1.2,2.7-2,4.3-2.3,1.6-.3,3.3-.2,4.8.5,1.5.6,2.8,1.7,3.7,3.1.9,1.4,1.4,3,1.4,4.7,0,1.1-.2,2.2-.6,3.2-.4,1-1,2-1.8,2.7-.8.8-1.7,1.4-2.7,1.8-1,.4-2.1.6-3.2.7h0Z"></path><path class="st0" d="M74.9,14.1c2.6-2.6,2.6-6.8,0-9.4-2.6-2.6-6.7-2.6-9.3,0-2.6,2.6-2.6,6.8,0,9.4,2.6,2.6,6.7,2.6,9.3,0Z"></path><path class="st0" d="M70.2,18.6c-1.7,0-3.4.7-4.6,2s-1.9,2.9-1.9,4.7v29.4c0,1.8.7,3.4,1.9,4.7,1.2,1.2,2.9,1.9,4.6,1.9s3.4-.7,4.6-1.9c1.2-1.2,1.9-2.9,1.9-4.7v-29.5c0-1.8-.7-3.4-1.9-4.7s-2.9-1.9-4.6-2Z"></path><path class="st0" d="M229.9,24.6c0-1.7-.8-3.3-2-4.5-1.2-1.2-2.9-1.9-4.6-1.9s-3.3.7-4.6,1.9c-1.2,1.2-1.9,2.8-2,4.5v14.3c0,5.4-3.4,9.7-8.7,9.7s-8.7-4.4-8.7-9.7v-14.5h0c-.2-1.6-1-3.1-2.1-4.1-1.2-1.1-2.7-1.7-4.3-1.7s-3.1.6-4.3,1.7c-1.2,1.1-2,2.5-2.1,4.1h0v14.5c0,5.8,2.4,11.3,6.4,15.4,4.1,4.1,9.5,6.4,15.3,6.4,5.7,0,11.2-2.2,15.3-6.3,4.1-4,6.5-9.5,6.6-15.3v-14.5h0Z"></path><path class="st0" d="M133.7,33.8c0-2-.5-16.2-16.1-16,0,0-6.7.2-9.8,5.6-3-5.4-9.8-5.6-9.8-5.6-16.8-.3-16.1,16.2-16.1,16.2v20.6c0,1.8.7,3.4,1.9,4.7,1.2,1.2,2.9,1.9,4.6,1.9s3.4-.7,4.6-1.9c1.2-1.2,1.9-2.9,1.9-4.7v-20.6s0-4.2,3.2-4.4c0,0,3.3-.2,3.3,4.4v20.6c0,1.8.7,3.4,1.9,4.7,1.2,1.2,2.9,1.9,4.6,1.9s3.4-.7,4.6-1.9c1.2-1.2,1.9-2.9,1.9-4.7v-23.3c.3-.5.6-1,1.1-1.3.5-.3,1-.5,1.6-.5,3.2.2,3.2,4.4,3.2,4.4v20.6c0,1.8.7,3.4,1.9,4.7,1.2,1.2,2.9,1.9,4.6,1.9s3.4-.7,4.6-1.9c1.2-1.2,1.9-2.9,1.9-4.7v-20.9Z"></path><path class="st0" d="M59.3,44.8V9.4c0-1.8-.7-3.4-1.9-4.7-1.2-1.2-2.9-1.9-4.6-1.9s-3.4.7-4.6,1.9c-1.2,1.2-1.9,2.9-1.9,4.7v35.6s-.3,4.3-5.5,4.4c-.2,0-3.7-.2-4.2-4.4v-21.3h0c-.2-1.6-.9-3.1-2.1-4.2-1.2-1.1-2.7-1.7-4.3-1.7s-3.2.6-4.3,1.7c-1.2,1.1-2,2.6-2.1,4.2h0v21.1c-.5,4.4-4,4.5-4.3,4.5-5.2,0-5.9-4.5-5.9-4.5V9.4c-.2-1.6-.9-3.2-2.1-4.3-1.2-1.1-2.8-1.7-4.4-1.7s-3.2.6-4.4,1.7C.9,6.2.2,7.7,0,9.4v35.7c0,2,.7,16.2,19.3,16,0,0,6.6-.1,10.5-4.2,3.9,4,10.5,4.2,10.5,4.2,20,.3,18.9-16.2,18.9-16.2Z"></path></svg>