<svg xmlns="http://www.w3.org/2000/svg" width="24" height="19" viewBox="0 0 24 19"><path d="M7.9998 12.6501L19.8998 0.750049C20.3998 0.283382 20.9498 0.0500488 21.5498 0.0500488C22.1498 0.0500488 22.6998 0.283382 23.1998 0.750049C23.6998 1.25005 23.9498 1.80838 23.9498 2.42505C23.9498 3.04172 23.6998 3.60005 23.1998 4.10005L9.69981 17.6501C9.23314 18.1167 8.66647 18.35 7.9998 18.35C7.33314 18.35 6.76647 18.1167 6.2998 17.6501L0.749805 12.1C0.283138 11.6 0.0498047 11.0417 0.0498047 10.425C0.0498047 9.80838 0.299805 9.25005 0.799805 8.75005C1.2998 8.28338 1.85814 8.05005 2.4748 8.05005C3.09147 8.05005 3.6498 8.28338 4.1498 8.75005L7.9998 12.6501Z"></path></svg>